<?xml version="1.0" encoding="utf-16"?>
<svg width="44" height="40" viewBox="0 0 44 40" fill="none" xmlns="http://www.w3.org/2000/svg">
  <path d="M18.2744 19.3398H29.2744" stroke="#EC6625" stroke-width="1.5" stroke-linecap="round" stroke-linejoin="round" />
  <path d="M18.2744 23.7402H29.2744" stroke="#EC6625" stroke-width="1.5" stroke-linecap="round" stroke-linejoin="round" />
  <path d="M18.2744 28.1396H29.2744" stroke="#EC6625" stroke-width="1.5" stroke-linecap="round" stroke-linejoin="round" />
  <path d="M26.9868 7.83351H15.9868C14.6668 7.83351 13.6035 8.90417 13.6035 10.2168V32.5762C13.6035 33.8962 14.6742 34.9595 15.9868 34.9595H31.2035C32.5235 34.9595 33.5868 33.8888 33.5868 32.5762V14.4262L26.9868 7.82617V7.83351Z" stroke="#004A80" stroke-width="1.5" stroke-linecap="round" stroke-linejoin="round" />
  <path d="M26.9873 7.83398V13.0187C26.9873 13.8473 27.662 14.522 28.4906 14.522H33.5873" stroke="#004A80" stroke-width="1.5" stroke-linecap="round" stroke-linejoin="round" />
  <path d="M13.3616 32.166H12.8042C11.4842 32.166 10.4209 31.0954 10.4209 29.7827V7.87804C10.4209 6.30871 11.6896 5.04004 13.2589 5.04004H24.4202C25.8209 5.04004 26.9649 6.17671 26.9649 7.58471" stroke="#004A80" stroke-width="1.5" stroke-linecap="round" stroke-linejoin="round" />
</svg>